<?xml version="1.0" standalone="no"?>
<!DOCTYPE svg PUBLIC "-//W3C//DTD SVG 20010904//EN"
 "http://www.w3.org/TR/2001/REC-SVG-20010904/DTD/svg10.dtd">
<svg version="1.0" xmlns="http://www.w3.org/2000/svg"
 width="667.000000pt" height="105.000000pt" viewBox="0 0 667.000000 105.000000"
 preserveAspectRatio="xMidYMid meet">

<g transform="translate(0.000000,105.000000) scale(0.100000,-0.100000)"
fill="#000000" stroke="none">
<path d="M37 928 c13 -72 28 -90 272 -340 l86 -88 -75 -75 c-41 -41 -80 -75
-88 -75 -7 0 -23 7 -35 15 -27 17 -107 46 -107 39 0 -3 27 -34 60 -69 l61 -62
-96 -91 c-98 -93 -110 -115 -77 -145 29 -27 47 -20 87 30 21 27 61 72 89 100
l50 52 63 -60 c35 -34 67 -59 70 -55 4 3 -9 38 -27 77 l-34 70 74 69 c41 38
80 69 85 70 6 0 44 -33 84 -74 74 -74 74 -75 58 -100 -10 -14 -26 -49 -38 -78
l-20 -53 71 70 71 70 64 -70 c36 -39 72 -83 81 -98 13 -24 20 -28 51 -25 20 2
40 10 46 19 14 23 0 67 -24 74 -25 8 -159 133 -159 148 0 6 26 37 57 69 62 63
56 71 -23 34 -61 -28 -64 -27 -164 68 l-61 59 165 167 c163 164 196 209 196
266 0 25 -2 26 -37 19 -57 -10 -93 -38 -263 -202 l-155 -150 -160 155 c-158
153 -226 202 -282 202 -20 0 -22 -4 -16 -32z"/>
<path d="M1130 480 l0 -340 190 0 190 0 0 125 0 125 -74 0 c-47 0 -77 5 -83
13 -6 6 -13 95 -16 197 -3 102 -9 194 -13 203 -5 14 -21 17 -100 17 l-94 0 0
-340z"/>
<path d="M1692 807 c-18 -21 -127 -640 -117 -658 4 -5 44 -9 89 -9 l83 0 6 65
c7 71 20 105 42 105 17 0 27 -29 34 -105 l6 -60 80 -3 c44 -2 91 0 104 3 28 7
30 -7 -32 295 -25 124 -51 257 -57 296 l-11 71 -61 7 c-95 10 -155 7 -166 -7z
m124 -278 c6 -65 -8 -95 -31 -65 -17 23 -19 73 -5 112 15 39 30 19 36 -47z"/>
<path d="M2257 810 c-50 -5 -73 -12 -92 -30 -84 -79 -80 -325 5 -367 14 -7 51
-15 83 -18 46 -5 58 -10 55 -23 -4 -21 -38 -30 -125 -31 l-73 -1 0 -100 0
-100 108 0 c186 1 239 26 269 129 19 66 12 146 -18 209 -25 50 -46 63 -118 73
-61 9 -85 26 -71 49 8 12 30 15 116 13 l107 -3 -6 97 c-4 53 -8 97 -9 98 -9 7
-174 11 -231 5z"/>
<path d="M2593 813 l-33 -4 0 -73 c0 -40 3 -100 6 -134 l7 -61 36 -3 c58 -5
63 -25 56 -225 l-6 -173 90 0 c50 0 92 1 92 3 1 1 4 90 8 197 l6 195 40 5 40
5 6 65 c4 36 4 95 1 131 l-5 66 -90 7 c-93 6 -197 6 -254 -1z"/>
<path d="M3255 814 c-112 -22 -129 -28 -161 -56 -69 -61 -79 -94 -79 -268 0
-152 0 -156 28 -202 34 -56 76 -94 132 -119 53 -23 161 -34 198 -20 l28 11 -7
118 c-3 64 -8 119 -10 121 -3 3 -31 8 -64 12 -97 11 -134 52 -96 104 11 16 30
20 90 23 l76 4 2 72 c4 125 -2 180 -19 194 -16 11 -74 14 -118 6z"/>
<path d="M3470 480 l0 -340 80 0 80 0 0 58 c1 63 13 129 28 144 18 18 33 -28
39 -117 l6 -85 78 0 79 0 0 340 0 340 -79 0 -78 0 -6 -96 c-4 -64 -10 -100
-19 -105 -24 -15 -37 15 -44 109 l-7 92 -78 0 -79 0 0 -340z"/>
<path d="M4035 798 c-21 -93 -106 -605 -103 -626 3 -26 5 -27 85 -30 l81 -3 7
53 c10 89 16 106 32 112 26 10 36 -9 48 -86 l11 -73 93 -3 c52 -1 98 1 103 6
4 4 -10 91 -31 193 -38 174 -91 449 -91 470 0 5 -50 9 -115 9 -111 0 -115 -1
-120 -22z m120 -266 c0 -85 -19 -84 -23 1 -2 53 0 68 10 65 9 -3 13 -25 13
-66z"/>
<path d="M4484 813 c-9 -6 -13 -105 -15 -341 l-4 -332 36 0 c20 0 51 3 68 6
30 6 31 8 32 63 0 71 12 139 21 125 4 -6 12 -44 19 -85 13 -84 23 -109 45
-109 19 0 30 30 39 106 7 61 19 94 30 82 3 -3 9 -47 12 -97 l6 -91 68 0 69 0
0 341 0 342 -91 -6 c-50 -3 -93 -8 -95 -10 -2 -2 -9 -39 -15 -83 -6 -43 -13
-83 -16 -87 -10 -17 -22 18 -29 84 -3 37 -10 72 -14 78 -8 14 -150 26 -166 14z"/>
<path d="M4980 488 l0 -335 46 -7 c26 -3 62 -6 80 -6 34 0 34 1 34 46 0 61 13
82 58 90 56 10 99 41 130 92 25 44 27 56 30 182 3 125 1 138 -20 179 -35 69
-73 83 -229 89 l-129 5 0 -335z m214 136 c3 -9 6 -48 6 -89 0 -80 -16 -109
-45 -85 -16 13 -21 121 -9 168 7 25 39 30 48 6z"/>
<path d="M5439 808 c-12 -11 -14 -65 -11 -340 l3 -328 110 0 111 0 -6 32 c-3
18 -8 171 -12 341 l-7 307 -87 0 c-55 0 -91 -5 -101 -12z"/>
<path d="M5822 811 c-18 -5 -45 -19 -59 -32 -50 -48 -53 -63 -53 -290 0 -195
2 -216 21 -256 27 -57 67 -83 133 -90 75 -8 121 3 161 38 60 53 70 98 70 314
0 174 -2 194 -22 237 -13 29 -33 52 -51 62 -36 19 -154 29 -200 17z m98 -207
c18 -21 25 -159 11 -212 -14 -49 -37 -54 -58 -12 -17 34 -16 163 1 205 16 39
27 43 46 19z"/>
<path d="M6170 480 l0 -340 70 0 70 0 1 68 c0 37 4 76 8 87 8 19 8 19 18 0 6
-11 19 -47 28 -80 10 -33 23 -63 29 -67 6 -4 44 -8 84 -8 l72 0 0 340 0 340
-69 0 -68 0 -7 -46 c-3 -26 -6 -63 -6 -83 0 -20 -5 -43 -10 -51 -9 -13 -11
-13 -20 0 -10 16 -40 138 -40 164 0 13 -14 16 -80 16 l-80 0 0 -340z"/>
</g>
</svg>
